<?xml version="1.0" encoding="utf-8"?>
<!-- Generator: Adobe Illustrator 23.0.2, SVG Export Plug-In . SVG Version: 6.00 Build 0)  -->
<svg version="1.1" id="Layer_1" xmlns="http://www.w3.org/2000/svg" xmlns:xlink="http://www.w3.org/1999/xlink" x="0px" y="0px"
	 viewBox="0 0 388.75 94.54" style="enable-background:new 0 0 388.75 94.54;" xml:space="preserve">
<style type="text/css">
	.st0{fill:#FFFFFF;}
</style>
<g>
	<path d="M78.06,62.96c-0.63,2.89-1.83,9.87-3.61,20.94c-5.58,1.11-10.28,1.84-14.08,2.2c-3.8,0.36-7.65,0.54-11.55,0.54
		c-5.73,0-11-0.4-15.81-1.19c-4.81-0.79-8.97-2.2-12.46-4.22c-3.49-2.02-6.42-4.53-8.77-7.54c-2.36-3.01-4.15-6.58-5.38-10.71
		c-1.23-4.14-1.84-8.39-1.84-12.77c0-6.16,1.23-12.18,3.68-18.07c2.46-5.89,5.62-10.5,9.5-13.81c3.87-3.32,8.34-5.67,13.39-7.07
		s10.23-2.09,15.52-2.09c5.49,0,10.72,0.64,15.71,1.91c4.98,1.28,9.21,3.5,12.67,6.68s5.93,6.76,7.4,10.76c1.47,4,2.2,8.3,2.2,12.93
		c0,2.74-0.31,5.8-0.94,9.17l-50.62,0.07c-0.05,0.77-0.07,1.46-0.07,2.08c0,5.18,1.85,8.99,5.56,11.43
		c3.71,2.45,8.23,3.67,13.58,3.67c3.18,0,6.8-0.37,10.87-1.12C67.08,66.01,72.09,64.74,78.06,62.96z M33.66,39.64h23.83
		c0.05-0.82,0.07-1.52,0.07-2.09c0-2.5-0.45-4.65-1.34-6.43c-0.89-1.78-2.17-3.08-3.83-3.9c-1.66-0.82-3.53-1.23-5.6-1.23
		c-1.44,0-2.84,0.23-4.19,0.69c-1.35,0.46-2.56,1.13-3.65,2.02c-1.08,0.89-1.99,1.91-2.71,3.07c-0.72,1.16-1.25,2.27-1.59,3.36
		C34.33,36.21,33.99,37.72,33.66,39.64z"/>
</g>
<g>
	<path d="M93.12,64.77c0.46-5.6,0.75-10.96,0.87-16.06c5.47,0.15,10.63,0.23,15.48,0.23c4.93,0,10.11-0.08,15.54-0.23
		c-0.46,4.99-0.75,10.34-0.87,16.06c-5.47-0.12-10.65-0.17-15.54-0.17C103.71,64.6,98.55,64.66,93.12,64.77z"/>
</g>
<g>
	<g>
		<path class="st0" d="M362.89,45.65c-3,4.59-4.17,9.42-6,13.94c-2.84,7.01-5.51,14.1-7.93,21.26c-1.05,3.11-2.56,4.26-5.92,4.29
			c-12.21,0.12-12.2,0.26-16.69-11.28c-3.47-8.91-6.94-17.82-10.38-26.67c-2.36,0.41-1.72,2.03-1.78,3.13
			c-0.78,13.09-1.64,26.17-2.12,39.27c-0.14,3.85-1.34,5.2-5.16,4.97c-4.6-0.27-9.24-0.19-13.85-0.02c-3.24,0.12-4.21-1.2-3.84-4.29
			c0.35-2.93,0.63-5.66,2.33-8.36c5.82-9.27,6.72-18.97,1.3-28.82c-0.83-1.51-1.3-2.91-1.19-4.68c0.95-14.55,1.89-29.11,2.61-43.67
			c0.16-3.28,1.18-4.59,4.55-4.47c5.53,0.2,11.09,0.22,16.62-0.01c3.11-0.13,4.48,1.01,5.51,3.94
			c5.07,14.45,10.36,28.82,15.66,43.19c0.75,2.03,1.06,4.32,2.75,6.03c2.37-0.9,2.16-3.31,2.79-5.03
			c5.21-14.2,10.44-28.4,15.2-42.76c1.45-4.37,3.6-5.71,7.95-5.39c4.96,0.37,9.97,0.18,14.95,0.05c2.75-0.07,3.88,0.82,4.03,3.76
			c1.39,28.59,2.87,57.17,4.46,85.74c0.2,3.62-0.84,5.01-4.55,4.8c-4.42-0.25-8.87-0.26-13.29,0c-3.7,0.22-4.79-1.4-4.92-4.82
			c-0.44-11.26-1.08-22.5-1.67-33.75C364.13,52.71,364.16,49.4,362.89,45.65z"/>
		<path class="st0" d="M240.48,94.49c-7.84,0-14.12-0.09-20.4,0.04c-3.01,0.06-4.26-0.87-4.22-4.11c0.15-12,0.1-24.01,0.02-36.01
			c-0.01-1.98,0.71-3.5,1.67-5.12c7.54-12.71,8.05-25.43-0.35-37.97c-2.1-3.13-1.75-6.57-0.85-9.55c0.85-2.82,4.19-1.45,6.37-1.4
			c13.28,0.28,26.6-1.11,39.83,0.8c9.05,1.31,16.86,4.81,19.74,14.46c2.84,9.53,1.52,18.33-6.19,25.34
			c-2.17,1.97-2.62,3.1,0.37,4.68c9.03,4.76,12.6,12.6,11.84,22.52c-0.86,11.2-6.57,18.82-17.11,22.95
			C260.72,95.23,249.78,94.32,240.48,94.49z M239.85,65.4c0.02,12.32,0.4,12.65,12.64,10.93c7.05-0.99,10.36-4.31,10.51-10.55
			c0.15-6.55-3.19-10.17-10.34-11.23C240.56,52.76,239.84,53.37,239.85,65.4z M247.23,17.58c-7.37-0.05-7.37-0.05-7.38,7.44
			c0,3.12,0,6.24,0.05,9.36c0.02,1.26,0.02,2.5,1.52,3.2c4.15,1.95,14.11-0.9,16.47-4.87c2.04-3.42,2.2-7.09,0.33-10.51
			C255.88,17.91,251.63,17.4,247.23,17.58z"/>
		<path class="st0" d="M145.11,47.05c0-14.02-0.01-28.05,0.01-42.07c0-2.12-0.58-4.75,2.97-4.65c14,0.39,28.08-1.27,41.99,0.97
			c15.8,2.54,24.29,11.91,25.24,26.9c0.98,15.56-7.5,28.08-22.08,32.48c-6.23,1.88-12.65,2.72-19.13,2.31
			c-4.27-0.27-5.4,1.45-5.26,5.45c0.26,7.37-0.02,14.76,0.13,22.14c0.06,2.88-0.98,3.99-3.82,3.93c-5.16-0.1-10.34-0.22-15.5,0.05
			c-3.78,0.19-4.66-1.41-4.62-4.88C145.2,75.47,145.11,61.26,145.11,47.05z M168.93,31.81c0.02,0,0.03,0,0.05,0
			c0,2.95-0.03,5.91,0.01,8.86c0.03,1.61-0.31,3.73,2.07,3.83c5.88,0.24,12.07,1.03,16.59-3.97c4.07-4.49,3.59-9.92,1.77-15.13
			c-1.79-5.11-10.81-8.37-17.83-6.4c-5.14,1.44-1.76,5.94-2.6,8.95C168.65,29.15,168.93,30.52,168.93,31.81z"/>
	</g>
	<g>
		<path d="M355.49,45.65c-3,4.59-4.17,9.42-6,13.94c-2.84,7.01-5.51,14.1-7.93,21.26c-1.05,3.11-2.56,4.26-5.92,4.29
			c-12.21,0.12-12.2,0.26-16.69-11.28c-3.47-8.91-6.94-17.82-10.38-26.67c-2.36,0.41-1.72,2.03-1.78,3.13
			c-0.78,13.09-1.64,26.17-2.12,39.27c-0.14,3.85-1.34,5.2-5.16,4.97c-4.6-0.27-9.24-0.19-13.85-0.02c-3.24,0.12-4.21-1.2-3.84-4.29
			c0.35-2.93,0.63-5.66,2.33-8.36c5.82-9.27,6.72-18.97,1.3-28.82c-0.83-1.51-1.3-2.91-1.19-4.68c0.95-14.55,1.89-29.11,2.61-43.67
			c0.16-3.28,1.18-4.59,4.55-4.47c5.53,0.2,11.09,0.22,16.62-0.01c3.11-0.13,4.48,1.01,5.51,3.94
			c5.07,14.45,10.36,28.82,15.66,43.19c0.75,2.03,1.06,4.32,2.75,6.03c2.37-0.9,2.16-3.31,2.79-5.03
			c5.21-14.2,10.44-28.4,15.2-42.76c1.45-4.37,3.6-5.71,7.95-5.39c4.96,0.37,9.97,0.18,14.95,0.05c2.75-0.07,3.88,0.82,4.03,3.76
			c1.39,28.59,2.87,57.17,4.46,85.74c0.2,3.62-0.84,5.01-4.55,4.8c-4.42-0.25-8.87-0.26-13.29,0c-3.7,0.22-4.79-1.4-4.92-4.82
			c-0.44-11.26-1.08-22.5-1.67-33.75C356.73,52.71,356.76,49.4,355.49,45.65z"/>
		<path d="M233.09,94.49c-7.84,0-14.12-0.09-20.4,0.04c-3.01,0.06-4.26-0.87-4.22-4.11c0.15-12,0.1-24.01,0.02-36.01
			c-0.01-1.98,0.71-3.5,1.67-5.12c7.54-12.71,8.05-25.43-0.35-37.97c-2.1-3.13-1.75-6.57-0.85-9.55c0.85-2.82,4.19-1.45,6.37-1.4
			c13.28,0.28,26.6-1.11,39.83,0.8c9.05,1.31,16.86,4.81,19.74,14.46c2.84,9.53,1.52,18.33-6.19,25.34
			c-2.17,1.97-2.62,3.1,0.37,4.68c9.03,4.76,12.6,12.6,11.84,22.52c-0.86,11.2-6.57,18.82-17.11,22.95
			C253.32,95.23,242.38,94.32,233.09,94.49z M232.46,65.4c0.02,12.32,0.4,12.65,12.64,10.93c7.05-0.99,10.36-4.31,10.51-10.55
			c0.15-6.55-3.19-10.17-10.34-11.23C233.17,52.76,232.44,53.37,232.46,65.4z M239.84,17.58c-7.37-0.05-7.37-0.05-7.38,7.44
			c0,3.12,0,6.24,0.05,9.36c0.02,1.26,0.02,2.5,1.52,3.2c4.15,1.95,14.11-0.9,16.47-4.87c2.04-3.42,2.2-7.09,0.33-10.51
			C248.49,17.91,244.24,17.4,239.84,17.58z"/>
		<path d="M137.72,47.05c0-14.02-0.01-28.05,0.01-42.07c0-2.12-0.58-4.75,2.97-4.65c14,0.39,28.08-1.27,41.99,0.97
			c15.8,2.54,24.29,11.91,25.24,26.9c0.98,15.56-7.5,28.08-22.08,32.48c-6.23,1.88-12.65,2.72-19.13,2.31
			c-4.27-0.27-5.4,1.45-5.26,5.45c0.26,7.37-0.02,14.76,0.13,22.14c0.06,2.88-0.98,3.99-3.82,3.93c-5.16-0.1-10.34-0.22-15.5,0.05
			c-3.78,0.19-4.66-1.41-4.62-4.88C137.81,75.47,137.72,61.26,137.72,47.05z M161.54,31.81c0.02,0,0.03,0,0.05,0
			c0,2.95-0.03,5.91,0.01,8.86c0.03,1.61-0.31,3.73,2.07,3.83c5.88,0.24,12.07,1.03,16.59-3.97c4.07-4.49,3.59-9.92,1.77-15.13
			c-1.79-5.11-10.81-8.37-17.83-6.4c-5.14,1.44-1.76,5.94-2.6,8.95C161.26,29.15,161.54,30.52,161.54,31.81z"/>
	</g>
</g>
</svg>
