<?xml version="1.0" encoding="utf-8"?>
<!-- Generator: Adobe Illustrator 23.0.2, SVG Export Plug-In . SVG Version: 6.00 Build 0)  -->
<svg version="1.1" id="Layer_1" xmlns="http://www.w3.org/2000/svg" xmlns:xlink="http://www.w3.org/1999/xlink" x="0px" y="0px"
	 viewBox="0 0 142.91 141.73" style="enable-background:new 0 0 142.91 141.73;" xml:space="preserve">
<style type="text/css">
	.st0{fill-rule:evenodd;clip-rule:evenodd;fill:#F2C916;}
	.st1{fill:#2B2F6F;}
</style>
<path class="st0" d="M14.26,0h114.08c7.84,0,14.26,6.02,14.26,13.38v114.96c0,7.36-6.42,13.38-14.26,13.38H14.26
	C6.42,141.73,0,135.71,0,128.35V13.38C0,6.02,6.42,0,14.26,0L14.26,0z"/>
<path class="st1" d="M96.08,86.57c-0.37-0.17-0.75-0.08-1.12-0.09c-9.52-0.01-19.04,0-28.55,0c-0.13,0-0.25,0-0.38,0
	c-1.12,0-1.02,0.08-1.02-1.02c0-7.19,0-14.37,0-21.56c0-1.11-0.1-1.03,1.01-1.03c19.98,0,39.96,0,59.94,0c0.13,0,0.25,0.01,0.38,0
	c0.5-0.06,0.64,0.19,0.65,0.66c0.35,9.15-0.29,18.2-3.01,27.01c-3.2,10.36-8.58,19.37-16.67,26.68
	c-7.64,6.91-16.54,11.43-26.71,13.07c-18.8,3.03-34.89-2.44-48.06-16.17c-7.96-8.3-12.78-18.32-15.21-29.52
	c-1.13-5.19-1.62-10.46-1.49-15.77c0.32-12.62,3.68-24.31,10.99-34.7C34.9,22.7,45.73,15.17,59.41,12.07
	c16.36-3.71,31.28-0.25,44.56,9.93c9.31,7.13,15.81,16.33,19.35,27.56c0.17,0.54,0.32,1.09,0.47,1.63c0.08,0.3,0.01,0.49-0.35,0.48
	c-0.19-0.01-0.38,0-0.57,0c-9.3,0-18.59-0.01-27.89,0.02c-0.69,0-1.05-0.2-1.38-0.82c-2.49-4.74-5.9-8.65-10.65-11.21
	c-6.98-3.76-14.23-4-21.52-1.07c-7.76,3.12-12.97,8.84-16.11,16.51c-2.13,5.22-2.84,10.68-2.74,16.28
	c0.09,4.92,0.81,9.72,2.52,14.35c2.32,6.27,6.08,11.44,11.75,15.09c4.94,3.19,10.36,4.62,16.25,4.26c4.08-0.25,7.98-1.15,11.57-3.13
	c5.68-3.13,9.24-7.96,11.1-14.1C95.92,87.45,96.08,87.03,96.08,86.57z"/>
</svg>
