<?xml version="1.0" encoding="utf-8"?>
<!-- Generator: Adobe Illustrator 23.0.2, SVG Export Plug-In . SVG Version: 6.00 Build 0)  -->
<svg version="1.1" id="Layer_1" xmlns="http://www.w3.org/2000/svg" xmlns:xlink="http://www.w3.org/1999/xlink" x="0px" y="0px"
	 viewBox="0 0 142.91 141.73" style="enable-background:new 0 0 142.91 141.73;" xml:space="preserve">
<style type="text/css">
	.st0{fill-rule:evenodd;clip-rule:evenodd;fill:#E5E5E5;}
</style>
<path class="st0" d="M14.26,0h114.08c7.84,0,14.26,6.02,14.26,13.38v114.96c0,7.36-6.42,13.38-14.26,13.38H14.26
	C6.42,141.73,0,135.71,0,128.35V13.38C0,6.02,6.42,0,14.26,0L14.26,0z"/>
<g>
	<path d="M89.77,109.83c-4.16,6.21-8.01,11.76-11.62,17.47c-1.22,1.93-2.58,2.56-4.79,2.52c-6.48-0.13-12.97-0.05-20.26-0.05
		C60.37,119.1,67.27,109,74.33,98.64C70.9,93.47,67.45,88.28,64,83.09c-3.96-5.94-8.17-11.73-11.81-17.85
		c-2.64-4.45-6.17-5.6-11.35-4.6c0,10.91,0,21.9,0,33.11c-8.31,0-16.13,0-24.21,0c0-27.24,0-54.37,0-81.42
		c0.36-0.2,0.56-0.42,0.77-0.42c16.98,0.15,33.97,0,50.93,0.6c12.12,0.43,19.5,7.54,20.78,18.54c1.43,12.27-4.53,21.79-15.94,25.46
		c-1.16,0.37-2.34,0.71-3.71,1.13c6.63,9.95,13.14,19.74,20.09,30.16c3.37-5.12,6.53-9.57,9.29-14.26c1.46-2.47,3.16-3.27,5.94-3.19
		c6.34,0.2,12.69,0.06,19.95,0.06c-6.93,9.88-13.32,18.98-19.79,28.2c6.98,10.19,13.91,20.31,21.32,31.13
		c-8.53,0-16.33,0.07-24.12-0.11c-0.85-0.02-1.89-1.38-2.45-2.35C96.43,121.68,93.26,116,89.77,109.83z M40.91,46.15
		c6.28-0.61,12.17-0.87,17.93-1.84c4.07-0.68,6.19-4.06,6.1-8.07c-0.08-4.2-2.13-7.28-6.35-7.8c-5.78-0.71-11.65-0.63-17.68-0.91
		C40.91,33.88,40.91,39.49,40.91,46.15z"/>
</g>
</svg>
