<?xml version="1.0" encoding="utf-8"?>
<!-- Generator: Adobe Illustrator 23.0.2, SVG Export Plug-In . SVG Version: 6.00 Build 0)  -->
<svg version="1.1" id="Layer_1" xmlns="http://www.w3.org/2000/svg" xmlns:xlink="http://www.w3.org/1999/xlink" x="0px" y="0px"
	 viewBox="0 0 142.91 141.73" style="enable-background:new 0 0 142.91 141.73;" xml:space="preserve">
<style type="text/css">
	.st0{fill-rule:evenodd;clip-rule:evenodd;fill:#E5E5E5;}
	.st1{fill:#0DAB59;}
</style>
<path class="st0" d="M14.26,0h114.08c7.84,0,14.26,6.02,14.26,13.38v114.96c0,7.36-6.42,13.38-14.26,13.38H14.26
	C6.42,141.73,0,135.71,0,128.35V13.38C0,6.02,6.42,0,14.26,0L14.26,0z"/>
<path class="st1" d="M81.25,117.17c6.9-1.48,14-2.35,20.34-5.75c6.3-3.38,13.18-6.87,13.17-15.16c-0.01-8.39-6.5-12.5-13.24-15.71
	c-12.42-5.92-25.94-8.22-39.16-11.5c-8.21-2.04-16.39-4.18-24.2-7.48c-2.06-0.87-4.1-1.85-6.01-3.01
	c-14.98-9.08-15.76-24.51-1.75-35c10.06-7.53,21.87-10.17,34.01-11.19c15.51-1.3,30.77,0.14,45.02,7.06
	c6.96,3.38,12.98,7.97,15.63,15.74c1.63,4.78,0.64,5.93-4.4,5.34c-2.32-0.27-4.56-1.03-5.99-2.77
	c-8.43-10.24-20.31-12.62-32.41-13.98c-12.12-1.35-24.16-0.33-35.74,3.95c-4.74,1.75-9.22,3.99-12.56,7.93
	c-3.31,3.91-3.04,7.23,0.8,10.87c3.88,3.68,8.77,5.57,13.76,6.92c13.65,3.71,27.41,7,41.04,10.75c8.16,2.24,16.1,5.16,23.27,9.84
	c17.78,11.63,18.02,32.07,0.29,43.75c-15.5,10.22-32.86,11.88-50.79,10c-10.98-1.15-21.28-4.4-30.3-11.02
	c-5-3.67-8.81-8.29-10.64-14.29c-1.37-4.5,0.14-6.01,4.84-5.15c2.46,0.45,4.79,1.45,6.19,3.49c6.95,10.15,17.49,13.47,28.77,15.47
	c1.52,0.27,3.03,0.62,4.55,0.94C72.2,118,74.6,118.11,81.25,117.17z"/>
</svg>
